<svg width="18px" height="18px" viewBox="61 0 19 18" version="1.1" xmlns="http://www.w3.org/2000/svg" xmlns:xlink="http://www.w3.org/1999/xlink">
    <!-- Generator: Sketch 3.8.3 (29802) - http://www.bohemiancoding.com/sketch -->
    <desc>Created with Sketch.</desc>
    <defs></defs>
    <path d="M76.231982,0 L65.731982,0 C63.661232,0 61.981982,1.67925 61.981982,3.75 L61.981982,14.25 C61.981982,16.32075 63.661232,18 65.731982,18 L76.231982,18 C78.303482,18 79.981982,16.32075 79.981982,14.25 L79.981982,3.75 C79.981982,1.67925 78.303482,0 76.231982,0 L76.231982,0 Z M72.882482,14.6925 C72.578732,14.751 72.481982,14.56425 72.481982,14.4045 L72.481982,12.75825 C72.481982,12.198 72.285482,11.8335 72.069482,11.6475 C73.405982,11.499 74.809982,10.99125 74.809982,8.68725 C74.809982,8.03175 74.575982,7.49625 74.192732,7.077 C74.254232,6.9255 74.459732,6.315 74.133482,5.48925 C74.133482,5.48925 73.630232,5.328 72.484982,6.10425 C72.004982,5.96925 71.491982,5.904 70.981982,5.901 C70.471982,5.90325 69.958982,5.96925 69.479732,6.10275 C68.333732,5.3265 67.829732,5.48775 67.829732,5.48775 C67.504232,6.31425 67.709732,6.924 67.771982,7.07625 C67.387982,7.49625 67.153982,8.031 67.153982,8.6865 C67.153982,10.9845 68.554232,11.49975 69.887732,11.652 C69.715982,11.802 69.560732,12.066 69.506732,12.4545 C69.163982,12.6075 68.296232,12.87225 67.760732,11.955 C67.760732,11.955 67.443482,11.379 66.840482,11.33625 C66.840482,11.33625 66.255482,11.32875 66.799232,11.7015 C66.799232,11.7015 67.192982,11.886 67.465982,12.579 C67.465982,12.579 67.813232,13.65 69.481982,13.287 L69.481982,14.40375 C69.481982,14.562 69.385232,14.748 69.085982,14.6925 C66.700982,13.89975 64.981982,11.6505 64.981982,9 C64.981982,5.68575 67.668482,3 70.981982,3 C74.295482,3 76.981982,5.68575 76.981982,9 C76.981982,11.64975 75.265232,13.89825 72.882482,14.6925 L72.882482,14.6925 Z" id="Shape" stroke="none" fill="#7D7D7D" fill-rule="evenodd"></path>
</svg>