<svg width="18px" height="18px" viewBox="0 0 18 18" version="1.1" xmlns="http://www.w3.org/2000/svg" xmlns:xlink="http://www.w3.org/1999/xlink">
    <!-- Generator: Sketch 3.8.3 (29802) - http://www.bohemiancoding.com/sketch -->
    <desc>Created with Sketch.</desc>
    <defs></defs>
    <path d="M14.25,0 L3.75,0 C1.67925,0 0,1.67925 0,3.75 L0,14.25 C0,16.32075 1.67925,18 3.75,18 L14.25,18 C16.3215,18 18,16.32075 18,14.25 L18,3.75 C18,1.67925 16.3215,0 14.25,0 L14.25,0 Z M14.14575,6.92775 C14.3025,10.3905 11.72025,14.2515 7.14825,14.2515 C5.75775,14.2515 4.464,13.84425 3.37425,13.14525 C4.68075,13.299 5.98425,12.93675 7.01925,12.126 C5.9415,12.10575 5.0325,11.394 4.71975,10.416 C5.106,10.4895 5.4855,10.46775 5.83125,10.374 C4.647,10.13625 3.83025,9.06975 3.8565,7.929 C4.188,8.1135 4.56825,8.2245 4.971,8.23725 C3.87525,7.5045 3.56475,6.057 4.209,4.95 C5.42325,6.4395 7.2375,7.41975 9.2835,7.5225 C8.92425,5.98275 10.0935,4.5 11.68275,4.5 C12.39,4.5 13.0305,4.7985 13.479,5.27775 C14.04,5.1675 14.56725,4.96275 15.0435,4.68075 C14.859,5.256 14.469,5.73825 13.96125,6.04275 C14.45925,5.98275 14.934,5.85075 15.375,5.655 C15.04575,6.147 14.628,6.5805 14.14575,6.92775 L14.14575,6.92775 Z" id="Shape" stroke="none" fill="#7D7D7D" fill-rule="evenodd"></path>
</svg>
