<svg width="18px" height="18px" viewBox="30 0 19 18" version="1.1" xmlns="http://www.w3.org/2000/svg" xmlns:xlink="http://www.w3.org/1999/xlink">
    <!-- Generator: Sketch 3.8.3 (29802) - http://www.bohemiancoding.com/sketch -->
    <desc>Created with Sketch.</desc>
    <defs></defs>
    <path d="M45.240991,0 L34.740991,0 C32.670241,0 30.990991,1.67925 30.990991,3.75 L30.990991,14.25 C30.990991,16.32075 32.670241,18 34.740991,18 L45.240991,18 C47.312491,18 48.990991,16.32075 48.990991,14.25 L48.990991,3.75 C48.990991,1.67925 47.312491,0 45.240991,0 L45.240991,0 Z M36.990991,14.25 L34.740991,14.25 L34.740991,6 L36.990991,6 L36.990991,14.25 L36.990991,14.25 Z M35.865991,5.049 C35.141491,5.049 34.553491,4.4565 34.553491,3.726 C34.553491,2.9955 35.141491,2.403 35.865991,2.403 C36.590491,2.403 37.178491,2.9955 37.178491,3.726 C37.178491,4.4565 36.591241,5.049 35.865991,5.049 L35.865991,5.049 Z M45.990991,14.25 L43.740991,14.25 L43.740991,10.047 C43.740991,7.521 40.740991,7.71225 40.740991,10.047 L40.740991,14.25 L38.490991,14.25 L38.490991,6 L40.740991,6 L40.740991,7.32375 C41.787991,5.38425 45.990991,5.241 45.990991,9.18075 L45.990991,14.25 L45.990991,14.25 Z" id="Shape" stroke="none" fill="#7D7D7D" fill-rule="evenodd"></path>
</svg>